<mxfile host="app.diagrams.net" modified="2022-01-21T07:00:17.380Z" agent="5.0 (Windows NT 10.0; Win64; x64) AppleWebKit/537.36 (KHTML, like Gecko) Chrome/97.0.4692.71 Safari/537.36" etag="fG6k0M7pMD2fuhHj__Bt" version="16.4.3" type="github">
  <diagram id="C5RBs43oDa-KdzZeNtuy" name="Page-1">
    <mxGraphModel dx="1038" dy="583" grid="1" gridSize="10" guides="1" tooltips="1" connect="1" arrows="1" fold="1" page="1" pageScale="1" pageWidth="827" pageHeight="1169" math="0" shadow="0">
      <root>
        <mxCell id="WIyWlLk6GJQsqaUBKTNV-0" />
        <mxCell id="WIyWlLk6GJQsqaUBKTNV-1" parent="WIyWlLk6GJQsqaUBKTNV-0" />
        <mxCell id="N7UUzQBfn7NGGPK2fQsx-31" value="&lt;p style=&quot;margin: 0px ; margin-top: 4px ; text-align: center&quot;&gt;&lt;span&gt;User&lt;/span&gt;&lt;/p&gt;&lt;hr size=&quot;1&quot;&gt;&lt;p&gt;&lt;/p&gt;&lt;pre style=&quot;height: 2px ; line-height: 1.5&quot;&gt;&lt;span&gt;id: Long&lt;/span&gt;&lt;/pre&gt;&lt;pre style=&quot;height: 2px ; line-height: 1.5&quot;&gt;&lt;span&gt;email: String&lt;/span&gt;&lt;/pre&gt;&lt;pre style=&quot;height: 2px ; line-height: 1.5&quot;&gt;&lt;span&gt;password: String&lt;/span&gt;&lt;/pre&gt;&lt;pre style=&quot;height: 2px ; line-height: 1.5&quot;&gt;&lt;span&gt;name: String&lt;/span&gt;&lt;/pre&gt;&lt;pre style=&quot;height: 2px ; line-height: 1.5&quot;&gt;&lt;span&gt;position: Position&lt;/span&gt;&lt;/pre&gt;&lt;pre style=&quot;height: 2px ; line-height: 1.5&quot;&gt;&lt;span&gt;stack: List&amp;lt;Position&amp;gt;&lt;/span&gt;&lt;/pre&gt;&lt;pre style=&quot;height: 2px ; line-height: 1.5&quot;&gt;&lt;span&gt;introduction: String&lt;/span&gt;&lt;/pre&gt;&lt;pre style=&quot;height: 2px ; line-height: 1.5&quot;&gt;&lt;span&gt;profile: String&lt;/span&gt;&lt;/pre&gt;&lt;pre style=&quot;height: 2px ; line-height: 1.5&quot;&gt;&lt;span&gt;githubUrl: String&lt;/span&gt;&lt;/pre&gt;&lt;pre style=&quot;height: 2px ; line-height: 1.5&quot;&gt;&lt;span&gt;links: List&amp;lt;String&amp;gt;&lt;/span&gt;&lt;/pre&gt;&lt;pre style=&quot;height: 2px ; line-height: 1.5&quot;&gt;&lt;span&gt;rating: Double&lt;/span&gt;&lt;/pre&gt;&lt;pre style=&quot;height: 2px ; line-height: 1.5&quot;&gt;&lt;span&gt;projects: List&lt;/span&gt;&lt;/pre&gt;&lt;pre style=&quot;height: 2px ; line-height: 1.5&quot;&gt;&lt;span&gt;canBeLeader: Boolean&lt;/span&gt;&lt;/pre&gt;&lt;pre style=&quot;height: 2px ; line-height: 1.5&quot;&gt;&lt;span&gt;&lt;br&gt;&lt;/span&gt;&lt;/pre&gt;&lt;p&gt;&lt;/p&gt;" style="verticalAlign=top;align=left;overflow=fill;fontSize=12;fontFamily=Helvetica;html=1;horizontal=1;rounded=0;sketch=0;spacingLeft=0;labelBackgroundColor=none;labelBorderColor=none;fontStyle=1;spacingBottom=0;spacingRight=0;spacing=2;" vertex="1" parent="WIyWlLk6GJQsqaUBKTNV-1">
          <mxGeometry x="220" y="90" width="170" height="250" as="geometry" />
        </mxCell>
        <mxCell id="N7UUzQBfn7NGGPK2fQsx-34" value="&lt;p style=&quot;margin: 0px ; margin-top: 4px ; text-align: center&quot;&gt;&lt;b&gt;Project&lt;/b&gt;&lt;/p&gt;&lt;hr size=&quot;1&quot;&gt;&lt;p&gt;&lt;/p&gt;&lt;pre style=&quot;height: 2px ; line-height: 1.5&quot;&gt;&lt;b&gt;id: Long&lt;/b&gt;&lt;/pre&gt;&lt;pre style=&quot;height: 2px ; line-height: 1.5&quot;&gt;&lt;b&gt;proposer: User&lt;/b&gt;&lt;/pre&gt;&lt;pre style=&quot;height: 2px ; line-height: 1.5&quot;&gt;&lt;b&gt;status: ProjectStatus&lt;/b&gt;&lt;/pre&gt;&lt;pre style=&quot;height: 2px ; line-height: 1.5&quot;&gt;&lt;b&gt;description: String&lt;/b&gt;&lt;/pre&gt;&lt;pre style=&quot;height: 2px ; line-height: 1.5&quot;&gt;&lt;b&gt;name: String&lt;/b&gt;&lt;/pre&gt;&lt;pre style=&quot;height: 2px ; line-height: 1.5&quot;&gt;&lt;b&gt;output: Output&lt;/b&gt;&lt;/pre&gt;&lt;pre style=&quot;height: 2px ; line-height: 1.5&quot;&gt;&lt;b&gt;questions: List&amp;lt;Question&amp;gt;&lt;/b&gt;&lt;/pre&gt;&lt;pre style=&quot;height: 2px ; line-height: 1.5&quot;&gt;&lt;b&gt;projectParts: List&amp;lt;ProjectPart&amp;gt;&lt;/b&gt;&lt;/pre&gt;&lt;p&gt;&lt;/p&gt;" style="verticalAlign=top;align=left;overflow=fill;fontSize=12;fontFamily=Helvetica;html=1;" vertex="1" parent="WIyWlLk6GJQsqaUBKTNV-1">
          <mxGeometry x="188.75" y="430" width="232.5" height="180" as="geometry" />
        </mxCell>
        <mxCell id="N7UUzQBfn7NGGPK2fQsx-38" value="" style="endArrow=none;html=1;rounded=0;fontFamily=Verdana;fontSize=12;entryX=0.5;entryY=1;entryDx=0;entryDy=0;exitX=0.5;exitY=0;exitDx=0;exitDy=0;" edge="1" parent="WIyWlLk6GJQsqaUBKTNV-1" source="N7UUzQBfn7NGGPK2fQsx-34" target="N7UUzQBfn7NGGPK2fQsx-31">
          <mxGeometry width="50" height="50" relative="1" as="geometry">
            <mxPoint x="320" y="420" as="sourcePoint" />
            <mxPoint x="370" y="370" as="targetPoint" />
          </mxGeometry>
        </mxCell>
        <mxCell id="N7UUzQBfn7NGGPK2fQsx-39" value="1" style="text;html=1;strokeColor=none;fillColor=none;align=center;verticalAlign=middle;whiteSpace=wrap;rounded=0;labelBackgroundColor=none;labelBorderColor=none;sketch=0;fontFamily=Verdana;fontSize=12;" vertex="1" parent="WIyWlLk6GJQsqaUBKTNV-1">
          <mxGeometry x="300" y="340" width="60" height="30" as="geometry" />
        </mxCell>
        <mxCell id="N7UUzQBfn7NGGPK2fQsx-40" value="*" style="text;html=1;strokeColor=none;fillColor=none;align=center;verticalAlign=middle;whiteSpace=wrap;rounded=0;labelBackgroundColor=none;labelBorderColor=none;sketch=0;fontFamily=Verdana;fontSize=12;" vertex="1" parent="WIyWlLk6GJQsqaUBKTNV-1">
          <mxGeometry x="300" y="400" width="60" height="30" as="geometry" />
        </mxCell>
        <mxCell id="N7UUzQBfn7NGGPK2fQsx-41" value="&lt;p style=&quot;margin: 0px ; margin-top: 4px ; text-align: center&quot;&gt;&lt;b&gt;Question&lt;/b&gt;&lt;/p&gt;&lt;hr size=&quot;1&quot;&gt;&lt;p&gt;&lt;/p&gt;&lt;pre style=&quot;height: 2px ; line-height: 1.5&quot;&gt;&lt;b&gt;id: Long&lt;/b&gt;&lt;/pre&gt;&lt;pre style=&quot;height: 2px ; line-height: 1.5&quot;&gt;&lt;b&gt;questioner: User&lt;/b&gt;&lt;/pre&gt;&lt;pre style=&quot;height: 2px ; line-height: 1.5&quot;&gt;&lt;b&gt;content: String&lt;/b&gt;&lt;/pre&gt;&lt;pre style=&quot;height: 2px ; line-height: 1.5&quot;&gt;&lt;b&gt;child: List&amp;lt;Question&amp;gt;&lt;/b&gt;&lt;/pre&gt;&lt;pre style=&quot;height: 2px ; line-height: 1.5&quot;&gt;&lt;b&gt;parent: Question&lt;/b&gt;&lt;/pre&gt;&lt;p&gt;&lt;/p&gt;" style="verticalAlign=top;align=left;overflow=fill;fontSize=12;fontFamily=Helvetica;html=1;" vertex="1" parent="WIyWlLk6GJQsqaUBKTNV-1">
          <mxGeometry x="520" y="455" width="160" height="130" as="geometry" />
        </mxCell>
        <mxCell id="N7UUzQBfn7NGGPK2fQsx-42" value="" style="endArrow=none;html=1;rounded=0;fontFamily=Verdana;fontSize=12;exitX=1;exitY=0.5;exitDx=0;exitDy=0;entryX=0;entryY=0.5;entryDx=0;entryDy=0;" edge="1" parent="WIyWlLk6GJQsqaUBKTNV-1" source="N7UUzQBfn7NGGPK2fQsx-34" target="N7UUzQBfn7NGGPK2fQsx-41">
          <mxGeometry width="50" height="50" relative="1" as="geometry">
            <mxPoint x="480" y="520" as="sourcePoint" />
            <mxPoint x="530" y="470" as="targetPoint" />
          </mxGeometry>
        </mxCell>
        <mxCell id="N7UUzQBfn7NGGPK2fQsx-52" value="" style="endArrow=none;html=1;rounded=0;fontFamily=Verdana;fontSize=12;entryX=1;entryY=0.5;entryDx=0;entryDy=0;" edge="1" parent="WIyWlLk6GJQsqaUBKTNV-1" target="N7UUzQBfn7NGGPK2fQsx-31">
          <mxGeometry width="50" height="50" relative="1" as="geometry">
            <mxPoint x="520" y="520" as="sourcePoint" />
            <mxPoint x="590" y="260" as="targetPoint" />
          </mxGeometry>
        </mxCell>
        <mxCell id="N7UUzQBfn7NGGPK2fQsx-53" value="1" style="text;html=1;strokeColor=none;fillColor=none;align=center;verticalAlign=middle;whiteSpace=wrap;rounded=0;labelBackgroundColor=none;labelBorderColor=none;sketch=0;fontFamily=Verdana;fontSize=12;" vertex="1" parent="WIyWlLk6GJQsqaUBKTNV-1">
          <mxGeometry x="380" y="210" width="60" height="30" as="geometry" />
        </mxCell>
        <mxCell id="N7UUzQBfn7NGGPK2fQsx-54" value="*" style="text;html=1;strokeColor=none;fillColor=none;align=center;verticalAlign=middle;whiteSpace=wrap;rounded=0;labelBackgroundColor=none;labelBorderColor=none;sketch=0;fontFamily=Verdana;fontSize=12;" vertex="1" parent="WIyWlLk6GJQsqaUBKTNV-1">
          <mxGeometry x="480" y="455" width="60" height="30" as="geometry" />
        </mxCell>
        <mxCell id="N7UUzQBfn7NGGPK2fQsx-55" value="*" style="text;html=1;strokeColor=none;fillColor=none;align=center;verticalAlign=middle;whiteSpace=wrap;rounded=0;labelBackgroundColor=none;labelBorderColor=none;sketch=0;fontFamily=Verdana;fontSize=12;" vertex="1" parent="WIyWlLk6GJQsqaUBKTNV-1">
          <mxGeometry x="470" y="490" width="60" height="30" as="geometry" />
        </mxCell>
        <mxCell id="N7UUzQBfn7NGGPK2fQsx-57" value="1" style="text;html=1;strokeColor=none;fillColor=none;align=center;verticalAlign=middle;whiteSpace=wrap;rounded=0;labelBackgroundColor=none;labelBorderColor=none;sketch=0;fontFamily=Verdana;fontSize=12;" vertex="1" parent="WIyWlLk6GJQsqaUBKTNV-1">
          <mxGeometry x="400" y="490" width="60" height="30" as="geometry" />
        </mxCell>
        <mxCell id="N7UUzQBfn7NGGPK2fQsx-60" value="" style="endArrow=none;html=1;rounded=0;fontFamily=Verdana;fontSize=12;entryX=1.007;entryY=0.634;entryDx=0;entryDy=0;entryPerimeter=0;" edge="1" parent="WIyWlLk6GJQsqaUBKTNV-1" target="N7UUzQBfn7NGGPK2fQsx-41">
          <mxGeometry width="50" height="50" relative="1" as="geometry">
            <mxPoint x="680" y="520" as="sourcePoint" />
            <mxPoint x="750" y="550" as="targetPoint" />
            <Array as="points">
              <mxPoint x="720" y="480" />
            </Array>
          </mxGeometry>
        </mxCell>
      </root>
    </mxGraphModel>
  </diagram>
</mxfile>
